<?xml version="1.0" ?><svg enable-background="new 0 0 200 200" id="Layer_1" version="1.1" viewBox="0 0 200 200" xml:space="preserve" xmlns="http://www.w3.org/2000/svg" xmlns:xlink="http://www.w3.org/1999/xlink"><g><path d="M171.42,171.333l-29.239-29.238l-5.81-5.811c0,0-0.001-0.001-0.001-0.001l-28.951-28.951l2.388-2.388h0   c7.319-7.319-3.874-25.604-18.056-40.506l6.345-6.344c4.278-4.277,6.634-9.965,6.634-16.015c0-5.001-1.632-9.74-4.606-13.654   c1.338-2.176,2.068-4.678,2.068-7.297c0-3.734-1.455-7.245-4.095-9.886c-5.451-5.451-14.32-5.451-19.772,0   c-2.64,2.641-4.095,6.151-4.095,9.886s1.455,7.245,4.095,9.886c2.726,2.726,6.306,4.088,9.886,4.088   c2.361,0,4.716-0.605,6.832-1.79c1.745,2.568,2.687,5.595,2.687,8.768c0,4.18-1.627,8.109-4.583,11.065l-6.345,6.344   C71.9,45.307,53.616,34.114,46.297,41.434c0,0,0,0,0,0L27.245,60.485c-3.636,3.635-3.043,10,1.76,18.92   c3.613,6.711,9.343,14.285,16.296,21.586l-6.344,6.345c-4.278,4.277-6.634,9.965-6.634,16.015c0,5.001,1.633,9.743,4.608,13.657   c-3.295,5.382-2.629,12.524,2.025,17.18c2.726,2.726,6.306,4.089,9.886,4.089c3.581,0,7.161-1.363,9.887-4.089   c5.45-5.452,5.45-14.321,0-19.771c-4.523-4.524-11.393-5.28-16.718-2.298c-1.745-2.568-2.688-5.594-2.688-8.768   c0-4.18,1.627-8.109,4.583-11.065l6.344-6.344c7.301,6.953,14.874,12.682,21.585,16.296c5.082,2.736,9.334,4.105,12.725,4.105   c1.719,0,3.212-0.361,4.484-1.065l63.71,63.71c2.493,2.493,5.808,3.866,9.333,3.866c3.526,0,6.84-1.373,9.333-3.866   c2.358-2.357,3.657-5.492,3.657-8.826S173.778,173.691,171.42,171.333z M93.148,26.063c-0.001,0.001-0.001,0.001-0.002,0.002   c-0.001,0.001-0.001,0.001-0.001,0.002c-2.722,2.719-7.15,2.719-9.871-0.002c-1.319-1.318-2.045-3.071-2.045-4.937   s0.726-3.618,2.044-4.937c1.361-1.36,3.148-2.041,4.937-2.041c1.788,0,3.576,0.681,4.936,2.041   c1.319,1.318,2.045,3.071,2.045,4.937C95.191,22.992,94.466,24.745,93.148,26.063z M43.906,139.365   c1.361-1.36,3.148-2.041,4.936-2.041s3.575,0.681,4.936,2.041c2.722,2.722,2.722,7.15,0,9.873c-2.721,2.721-7.149,2.723-9.873,0   C41.184,146.516,41.184,142.087,43.906,139.365z M44.81,52.819c0.016,0.054,0.039,0.113,0.056,0.167   c0.141,0.459,0.298,0.928,0.472,1.408c0.063,0.175,0.134,0.355,0.202,0.533c0.147,0.384,0.302,0.774,0.469,1.171   c0.083,0.197,0.168,0.396,0.256,0.596c0.182,0.415,0.378,0.838,0.582,1.266c0.084,0.177,0.164,0.35,0.252,0.529   c0.055,0.113,0.109,0.224,0.166,0.338L36.749,60.88L44.81,52.819z M35.168,76.087c-1.699-3.155-2.549-5.507-2.94-7.19l14.045-2.744   l-7.819,15.358C37.211,79.65,36.109,77.833,35.168,76.087z M53.035,68.3c1.617,2.288,3.406,4.619,5.353,6.958   c1.266,1.521,2.597,3.046,3.983,4.563l-16.984,3.503L53.035,68.3z M60.748,105.968c-1.849-1.563-3.705-3.226-5.548-4.978   l3.777-3.777c1.367-1.366,1.367-3.583,0-4.949c-1.367-1.367-3.583-1.367-4.95,0l-3.777,3.777c-1.751-1.843-3.414-3.698-4.977-5.547   l19.493-4.02L60.748,105.968z M82.436,119.033c-1.69-0.381-4.07-1.231-7.282-2.96c-1.709-0.92-3.484-1.996-5.303-3.206l15.7-7.576   L82.436,119.033z M67.879,106.046l3.541-17.178c0.399,0.364,0.8,0.726,1.203,1.085c0.041,0.037,0.083,0.074,0.125,0.111   c0.568,0.505,1.14,1.003,1.714,1.496c0.132,0.114,0.264,0.228,0.397,0.341c0.57,0.486,1.142,0.965,1.715,1.437   c0.14,0.115,0.28,0.229,0.42,0.343c0.573,0.467,1.146,0.929,1.721,1.38c0.066,0.052,0.131,0.103,0.197,0.154   c0.563,0.44,1.125,0.869,1.688,1.292c0.142,0.107,0.284,0.214,0.426,0.32c0.572,0.426,1.144,0.842,1.715,1.249   c0.143,0.102,0.286,0.202,0.429,0.302c0.082,0.057,0.163,0.116,0.245,0.173L67.879,106.046z M71.743,79.497   C65.58,73.333,60.316,66.912,56.566,61.02c-0.865-1.36-1.65-2.691-2.347-3.985c-3.92-7.28-3.33-10.296-2.973-10.652   c0.235-0.235,0.669-0.359,1.286-0.359c4.172,0,16.656,5.686,31.828,20.856c17.413,17.413,22.329,31.284,20.498,33.115   C103.023,101.823,89.156,96.909,71.743,79.497z M92.963,104.257c0.032,0.016,0.064,0.028,0.096,0.044   c0.542,0.259,1.077,0.503,1.607,0.731c0.118,0.051,0.235,0.099,0.352,0.148c0.547,0.229,1.089,0.447,1.62,0.641   c0.027,0.01,0.053,0.018,0.08,0.028c0.517,0.187,1.024,0.351,1.526,0.503c0.063,0.019,0.128,0.045,0.191,0.063l-7.709,7.709   L92.963,104.257z M94.209,120.543l8.261-8.261l26.477,26.477l-8.261,8.261L94.209,120.543z M125.636,151.969l8.26-8.26l8.261,8.261   l-8.26,8.26L125.636,151.969z M166.47,184.037c-1.171,1.171-2.728,1.815-4.383,1.815s-3.212-0.645-4.383-1.815l-18.858-18.858   l8.261-8.26l19.363,19.363c1.036,1.036,1.606,2.413,1.606,3.878C168.077,181.624,167.506,183.001,166.47,184.037z" fill="#1D1D1B"/><path d="M136.393,90.477c5.194,0,9.42-4.227,9.42-9.421V61.381l17.349-3.6v9.13   c-0.774-0.206-1.582-0.327-2.42-0.327c-5.194,0-9.42,4.227-9.42,9.421s4.226,9.42,9.42,9.42s9.42-4.226,9.42-9.42V53.48   c0-1.053-0.474-2.05-1.291-2.715c-0.817-0.665-1.891-0.926-2.92-0.712l-24.349,5.052c-1.625,0.337-2.789,1.768-2.789,3.427v13.43   c-0.774-0.206-1.582-0.327-2.42-0.327c-5.194,0-9.42,4.226-9.42,9.42S131.198,90.477,136.393,90.477z M160.742,78.425   c-1.334,0-2.42-1.086-2.42-2.42c0-1.335,1.086-2.421,2.42-2.421s2.42,1.086,2.42,2.421   C163.162,77.339,162.076,78.425,160.742,78.425z M136.393,78.636c1.334,0,2.42,1.086,2.42,2.42c0,1.335-1.086,2.421-2.42,2.421   s-2.42-1.086-2.42-2.421C133.972,79.722,135.058,78.636,136.393,78.636z" fill="#1D1D1B"/><path d="M91.894,151.039l-10.402,2.158c-1.625,0.337-2.789,1.768-2.789,3.427v12.972   c-0.728-0.184-1.485-0.293-2.27-0.293c-5.111,0-9.27,4.158-9.27,9.27s4.158,9.27,9.27,9.27s9.27-4.158,9.27-9.27v-19.101   l7.613-1.58c1.893-0.393,3.109-2.245,2.716-4.138C95.639,151.862,93.789,150.646,91.894,151.039z M76.433,180.843   c-1.251,0-2.27-1.019-2.27-2.27s1.018-2.27,2.27-2.27s2.27,1.019,2.27,2.27S77.685,180.843,76.433,180.843z" fill="#1D1D1B"/></g></svg>