<?xml version="1.0" ?><svg xmlns="http://www.w3.org/2000/svg" xmlns:xlink="http://www.w3.org/1999/xlink" version="1.1" id="Layer_1" viewBox="0 0 1000 1000" style="enable-background:new 0 0 1000 1000;" xml:space="preserve"><style type="text/css">
	.st0{fill:#ADAAD4;}
	.st1{fill:#F6AEC3;}
	.st2{fill:#F5EA85;}
	.st3{fill:#FDD677;}
	.st4{fill:#32C0CE;}
	.st5{fill:#FDD770;}
	.st6{fill:#FFFFFF;}
	.st7{fill:#73CBCA;}
	.st8{fill:#BFE5EB;}
	.st9{fill:#F4E884;}
	.st10{fill:#A29B97;}
	.st11{fill:#424C5C;}
	.st12{fill:#7183BD;}
	.st13{fill:#E7DC9D;}
	.st14{fill:#FCD76B;}
	.st15{fill:#AFCBE8;}
	.st16{fill:#EF4865;}
	.st17{fill:#A8C9DC;}
	.st18{fill:#9C9E9C;}
	.st19{fill:#F6DE62;}
	.st20{fill:#F7B0C0;}
	.st21{fill:#21C1E2;}
	.st22{fill:#F6E883;}
	.st23{fill:#A2CBE3;}
	.st24{fill:#FBDA74;}
	.st25{fill:#EF4B67;}
	.st26{fill:#B5DCE6;}
	.st27{fill:#B2D0E8;}
	.st28{fill:#AECDE9;}
	.st29{fill:#E99286;}
	.st30{fill:#F9BA73;}
	.st31{fill:#F0877F;}
	.st32{fill:#BDC579;}
	.st33{fill:#FED56E;}
	.st34{fill:#C5DB86;}
	.st35{fill:#FCBF6B;}
	.st36{fill:#F8BC70;}
	.st37{fill:#FBBA6B;}
	.st38{fill:#FCD86F;}
	.st39{fill:#EF8E85;}
	.st40{fill:#E6BE65;}
	.st41{fill:#C9DB84;}
	.st42{fill:#FAD367;}
	.st43{fill:#F7BC74;}
	.st44{fill:#FBD872;}
	.st45{fill:#D1E08B;}
	.st46{fill:#EE8A7E;}
	.st47{fill:#F38B85;}
	.st48{fill:#FDCF6A;}
	.st49{fill:#CADB86;}
	.st50{fill:none;}
	.st51{fill:#010101;}
	.st52{fill:#010101;stroke:#010101;stroke-miterlimit:10;}
</style><path d="M465.21,197.25c127.28-0.38,209.45,70.59,225.54,195.89c6.37,49.6-18.09,88.73-48.24,124.55  c-38.63,45.91-69.31,95.57-73,157.06c-0.77,12.83,9.54,25.95,11.52,39.41c3.1,21.14,9.06,44.22,3.73,63.72  c-9.62,35.2-24.02,69.87-41.97,101.63c-6.9,12.21-29.45,23.09-44.01,22.09c-52.53-3.61-104.95-11.17-156.78-20.66  c-10.07-1.84-22.31-17.9-24.97-29.39c-8.36-36.05-13.03-72.99-18.08-109.72c-0.88-6.37,1.5-14.88,5.48-19.97  c35.46-45.36,18.07-91.18,1.23-136.42c-14.72-39.56-32.68-77.92-47.31-117.51c-52.9-143.16,26.22-262.66,178.61-270.6  C446.35,196.83,455.79,197.25,465.21,197.25z M542.85,703.3c-3.57-84.24,36.7-147.16,85.63-208.14  c66.11-82.38,22.42-225.63-77.6-262.75c-7.59-2.82-15.68-5.72-23.61-5.92c-38.71-1-77.76-4.42-116.09-0.75  c-64.91,6.22-111.62,40.9-134.73,102.99c-19.24,51.71-6.49,101.35,12.15,150.76c25.02,66.32,48.25,133.31,74.61,206.58  C413.95,690.94,475.66,696.86,542.85,703.3z M565.59,730.73c-72.69-6.09-142.62-13.05-212.72-16.61  c-10.46-0.53-21.73,14.87-32.62,22.9c1.71,4.28,3.43,8.56,5.14,12.84c77.96,9.66,155.92,19.32,236.94,29.36  C563.65,759.59,564.49,747.18,565.59,730.73z M329.32,776.81c-2.25,3.33-4.49,6.66-6.74,9.99c8.74,7.48,16.43,19.05,26.43,21.6  c22.47,5.73,46.03,7.42,69.23,9.96c34.82,3.81,69.68,8,104.63,9.46c7.07,0.3,14.62-10.85,21.94-16.72  c-4.74-4.03-9.13-11.02-14.29-11.64C463.52,791.38,396.41,784.21,329.32,776.81z M336.11,832.24  c15.97,33.27,62.16,46.08,149.51,45.71c14.09-0.06,28.14-7.76,42.21-11.94c-1.03-3.39-2.05-6.78-3.08-10.17  C463.74,848.21,402.72,840.57,336.11,832.24z"/><path d="M415.37,100.4c-2.05,16.5-3.63,33.08-6.62,49.4c-0.47,2.57-8.65,6.54-10.94,5.35c-4.2-2.18-9.8-8.11-9.32-11.76  c1.98-15.17,6-30.06,9.28-45.06C403.63,99.02,409.5,99.71,415.37,100.4z"/><path d="M280.34,150.58c-2.05,16.5-3.63,33.08-6.62,49.4c-0.47,2.57-8.65,6.54-10.94,5.35c-4.2-2.18-9.8-8.11-9.32-11.76  c1.98-15.17,6-30.06,9.28-45.06C268.6,149.21,274.47,149.89,280.34,150.58z"/><path d="M178.4,256.51c-2.05,16.5-3.63,33.08-6.62,49.4c-0.47,2.57-8.65,6.54-10.94,5.35c-4.2-2.18-9.8-8.11-9.32-11.76  c1.98-15.17,6-30.06,9.28-45.06C166.66,255.13,172.53,255.82,178.4,256.51z"/><path d="M539.82,117c-2.05,16.5-3.63,33.08-6.62,49.4c-0.47,2.57-8.65,6.54-10.94,5.35c-4.2-2.18-9.8-8.11-9.32-11.76  c1.98-15.17,6-30.06,9.28-45.06C528.08,115.62,533.95,116.31,539.82,117z"/><path d="M674.16,152.34c-10.44,15.45-20.88,30.9-31.33,46.35c-3.55-2.14-7.09-4.27-10.64-6.41c-4.84-24.15,11.53-36.67,28.52-48.84  C665.2,146.41,669.68,149.38,674.16,152.34z"/><path d="M787.23,293.71c-10.44,15.45-20.88,30.9-31.33,46.35c-3.55-2.14-7.09-4.27-10.64-6.41c-4.84-24.15,11.53-36.67,28.52-48.84  C778.27,287.78,782.75,290.74,787.23,293.71z"/><path class="st14" d="M542.85,703.3c-67.19-6.44-128.9-12.36-179.64-17.23c-26.36-73.27-49.59-140.27-74.61-206.58  c-18.64-49.42-31.4-99.06-12.15-150.76c23.11-62.1,69.83-96.78,134.73-102.99c38.33-3.67,77.38-0.24,116.09,0.75  c7.93,0.2,16.02,3.11,23.61,5.92c100.01,37.13,143.71,180.37,77.6,262.75C579.55,556.14,539.27,619.06,542.85,703.3z M490.72,512.09  c4,39.14,6.13,69.52,10.9,99.48c1.06,6.66,11.42,11.84,17.5,17.71c2.6-7.53,7.44-15.08,7.35-22.58  c-0.21-18.67-3.42-37.29-4.04-55.98c-0.78-23.71-0.19-47.47-0.19-71.2c-3.02,2.75-6.03,5.51-9.05,8.26  c-19.83-8.4-39.67-16.8-61.32-25.96c-14.93,22.31-31.8,16.79-51.32,0.87c-12.89-10.51-22.6-7.9-24.81,12.53  c-4.24,39.19-11.75,78.02-16.53,117.17c-1.04,8.5,3.74,17.7,5.84,26.58c6.07-5.77,15.5-10.51,17.62-17.48  c9.83-32.27,17.63-65.15,27.56-103.16C437.58,503,466.21,507.9,490.72,512.09z M322.08,385.37c26.19-32.65,48.7-60.61,70.35-89.2  c0.2-0.26-11.82-14.02-16.67-13.17C348.31,287.82,315.41,346.28,322.08,385.37z"/><path class="st21" d="M565.59,730.73c-1.11,16.46-1.94,28.86-3.27,48.49c-81.01-10.04-158.97-19.7-236.94-29.36  c-1.71-4.28-3.43-8.56-5.14-12.84c10.89-8.03,22.16-23.43,32.62-22.9C422.97,717.68,492.9,724.64,565.59,730.73z"/><path class="st21" d="M327.85,776.81c67.09,7.4,134.2,14.57,201.21,22.65c5.15,0.62,9.54,7.61,14.29,11.64  c-7.33,5.87-14.87,17.01-21.94,16.72c-34.95-1.46-69.8-5.65-104.63-9.46c-23.2-2.54-46.77-4.23-69.23-9.96  c-9.99-2.55-17.69-14.12-26.43-21.6C323.36,783.47,325.61,780.14,327.85,776.81z"/><path class="st21" d="M334.64,832.24c66.62,8.34,127.64,15.97,188.65,23.6c1.03,3.39,2.05,6.78,3.08,10.17  c-14.07,4.17-28.13,11.88-42.21,11.94C396.8,878.32,350.61,865.51,334.64,832.24z"/><path class="st14" d="M490.72,512.09c-24.51-4.19-53.13-9.09-80.48-13.76c-9.92,38-17.72,70.89-27.56,103.16  c-2.12,6.97-11.56,11.71-17.62,17.48c-2.1-8.88-6.88-18.08-5.84-26.58c4.78-39.15,12.29-77.98,16.53-117.17  c2.21-20.43,11.92-23.05,24.81-12.53c19.52,15.92,36.4,21.44,51.32-0.87c21.65,9.17,41.48,17.56,61.32,25.96  c3.02-2.75,6.03-5.51,9.05-8.26c0,23.74-0.59,47.49,0.19,71.2c0.62,18.69,3.82,37.31,4.04,55.98c0.09,7.5-4.75,15.05-7.35,22.58  c-6.08-5.86-16.44-11.04-17.5-17.71C496.85,581.61,494.71,551.23,490.72,512.09z"/><path class="st14" d="M322.08,385.37c-6.67-39.09,26.23-97.55,53.69-102.37c4.85-0.85,16.87,12.9,16.67,13.17  C370.78,324.76,348.28,352.72,322.08,385.37z"/></svg>